<?xml version="1.0" standalone="no"?>
<!DOCTYPE svg PUBLIC "-//W3C//DTD SVG 20010904//EN"
 "http://www.w3.org/TR/2001/REC-SVG-20010904/DTD/svg10.dtd">
<svg version="1.0" xmlns="http://www.w3.org/2000/svg"
 width="225.000000pt" height="225.000000pt" viewBox="0 0 225.000000 225.000000"
 preserveAspectRatio="xMidYMid meet">

<g transform="translate(0.000000,225.000000) scale(0.100000,-0.100000)"
fill="#000000" stroke="none">
<path d="M975 2239 c-366 -46 -713 -302 -870 -642 -136 -294 -136 -650 0 -944
104 -224 308 -432 530 -538 375 -180 825 -140 1151 103 570 425 621 1235 108
1722 -248 236 -574 342 -919 299z m285 -183 c193 -29 359 -110 498 -240 157
-149 256 -327 291 -530 14 -77 14 -245 0 -322 -23 -131 -84 -277 -164 -390
-99 -138 -292 -286 -433 -331 -86 -27 -86 -27 -92 183 -5 167 -7 183 -31 231
l-26 53 36 6 c187 30 312 124 357 267 9 29 18 95 21 148 6 109 -9 180 -53 245
-25 36 -27 47 -28 149 -1 136 -11 160 -64 151 -21 -4 -78 -27 -128 -52 -90
-44 -93 -45 -135 -33 -59 17 -299 18 -365 1 -50 -13 -52 -13 -103 17 -53 31
-157 71 -186 71 -31 0 -48 -67 -43 -166 5 -88 4 -94 -24 -135 -39 -59 -58
-129 -58 -218 1 -245 112 -388 340 -437 l77 -17 -23 -41 c-13 -23 -24 -51 -24
-63 0 -27 -43 -43 -114 -43 -65 0 -115 29 -160 93 -40 57 -75 85 -118 98 -68
19 -91 -15 -34 -50 37 -23 73 -72 106 -144 26 -56 80 -103 134 -118 21 -6 70
-9 108 -7 l69 3 -3 -94 c-4 -115 -11 -123 -90 -98 -141 45 -334 193 -433 331
-80 113 -141 259 -164 390 -14 77 -14 245 0 322 35 203 134 381 291 530 136
127 304 210 488 239 113 17 167 18 280 1z"/>
</g>
</svg>
